# xmcd CD database file
# Copyright (C) 1993-1998 Ti Kan
#
# Track frame offsets:
#  150
#  17455
#  40746
#  57645
#  77755
#  93863
#  109221
#  127761
#  144074
#  164594
#
# Disc length: 2397 seconds
#
# Revision: 1
# Processed by: cddbd v1.4b41PL1 Copyright (c) Steve Scherf et al.
# Submitted via: CDWizzard Release:4.60
#
DISCID=74095b0a
DTITLE=G. Squad - Besoin de vous
DYEAR=1900
DGENRE=
TTITLE0=Tout est dans le coeur
TTITLE1=Besoin de vous
TTITLE2=Melodi d'amour
TTITLE3=Kiss me tonight
TTITLE4=Le telegramme
TTITLE5=J'te donnerai tout
TTITLE6=La roue tourne
TTITLE7=Don't stop
TTITLE8=Combien de larmes
TTITLE9=Ti amo
EXTD=
EXTT0=
EXTT1=
EXTT2=
EXTT3=
EXTT4=
EXTT5=
EXTT6=
EXTT7=
EXTT8=
EXTT9=
PLAYORDER=
